<?xml version="1.0" encoding="UTF-8" standalone="no"?>
<!DOCTYPE svg PUBLIC "-//W3C//DTD SVG 1.1//EN"
 "http://www.w3.org/Graphics/SVG/1.1/DTD/svg11.dtd">
<!-- Generated by graphviz version 2.40.1 (20161225.0304)
 -->
<!-- Title: dsvers Pages: 1 -->
<svg width="279pt" height="116pt"
 viewBox="0.00 0.00 279.30 116.00" xmlns="http://www.w3.org/2000/svg" xmlns:xlink="http://www.w3.org/1999/xlink">
<g id="graph0" class="graph" transform="scale(1 1) rotate(0) translate(4 112)">
<title>dsvers</title>
<polygon fill="#ffffff" stroke="transparent" points="-4,4 -4,-112 275.2976,-112 275.2976,4 -4,4"/>
<!-- init -->
<g id="node1" class="node">
<title>init</title>
<g id="a_node1"><a xlink:href="/datasets/select/init" xlink:title="init">
<ellipse fill="none" stroke="#000000" stroke-width="2" cx="27" cy="-90" rx="27" ry="18"/>
<text text-anchor="middle" x="27" y="-86.3" font-family="Times,serif" font-size="14.00" fill="#000000">init</text>
</a>
</g>
</g>
<!-- adas -->
<g id="node2" class="node">
<title>adas</title>
<g id="a_node2"><a xlink:href="/datasets/select/adas" xlink:title="adas">
<ellipse fill="none" stroke="#000000" cx="27" cy="-18" rx="27" ry="18"/>
<text text-anchor="middle" x="27" y="-14.3" font-family="Times,serif" font-size="14.00" fill="#000000">adas</text>
</a>
</g>
</g>
<!-- init&#45;&gt;adas -->
<g id="edge1" class="edge">
<title>init&#45;&gt;adas</title>
<path fill="none" stroke="#000000" d="M27,-71.8314C27,-64.131 27,-54.9743 27,-46.4166"/>
<polygon fill="#000000" stroke="#000000" points="30.5001,-46.4132 27,-36.4133 23.5001,-46.4133 30.5001,-46.4132"/>
</g>
<!-- ds2 -->
<g id="node3" class="node">
<title>ds2</title>
<g id="a_node3"><a xlink:href="/datasets/select/ds2" xlink:title="ds2">
<ellipse fill="none" stroke="#000000" stroke-width="2" cx="99" cy="-90" rx="27" ry="18"/>
<text text-anchor="middle" x="99" y="-86.3" font-family="Times,serif" font-size="14.00" fill="#000000">ds2</text>
</a>
</g>
</g>
<!-- ds21 -->
<g id="node4" class="node">
<title>ds21</title>
<g id="a_node4"><a xlink:href="/datasets/select/ds21" xlink:title="ds21">
<ellipse fill="none" stroke="#000000" cx="99" cy="-18" rx="27.0966" ry="18"/>
<text text-anchor="middle" x="99" y="-14.3" font-family="Times,serif" font-size="14.00" fill="#000000">ds21</text>
</a>
</g>
</g>
<!-- ds2&#45;&gt;ds21 -->
<g id="edge2" class="edge">
<title>ds2&#45;&gt;ds21</title>
<path fill="none" stroke="#000000" d="M99,-71.8314C99,-64.131 99,-54.9743 99,-46.4166"/>
<polygon fill="#000000" stroke="#000000" points="102.5001,-46.4132 99,-36.4133 95.5001,-46.4133 102.5001,-46.4132"/>
</g>
<!-- ds3 -->
<g id="node5" class="node">
<title>ds3</title>
<g id="a_node5"><a xlink:href="/datasets/select/ds3" xlink:title="ds3">
<ellipse fill="none" stroke="#000000" stroke-width="2" cx="172" cy="-90" rx="27" ry="18"/>
<text text-anchor="middle" x="172" y="-86.3" font-family="Times,serif" font-size="14.00" fill="#000000">ds3</text>
</a>
</g>
</g>
<!-- ds31 -->
<g id="node6" class="node">
<title>ds31</title>
<g id="a_node6"><a xlink:href="/datasets/select/ds31" xlink:title="ds31">
<ellipse fill="none" stroke="#000000" cx="172" cy="-18" rx="27.0966" ry="18"/>
<text text-anchor="middle" x="172" y="-14.3" font-family="Times,serif" font-size="14.00" fill="#000000">ds31</text>
</a>
</g>
</g>
<!-- ds3&#45;&gt;ds31 -->
<g id="edge3" class="edge">
<title>ds3&#45;&gt;ds31</title>
<path fill="none" stroke="#000000" d="M172,-71.8314C172,-64.131 172,-54.9743 172,-46.4166"/>
<polygon fill="#000000" stroke="#000000" points="175.5001,-46.4132 172,-36.4133 168.5001,-46.4133 175.5001,-46.4132"/>
</g>
<!-- abcd -->
<g id="node7" class="node">
<title>abcd</title>
<g id="a_node7"><a xlink:href="/datasets/select/abcd" xlink:title="abcd">
<ellipse fill="#d3d3d3" stroke="#000000" cx="244" cy="-90" rx="27.0966" ry="18"/>
<text text-anchor="middle" x="244" y="-86.3" font-family="Times,serif" font-size="14.00" fill="#000000">abcd</text>
</a>
</g>
</g>
</g>
</svg>
