<?xml version="1.0" encoding="UTF-8" standalone="no"?>
<!DOCTYPE svg PUBLIC "-//W3C//DTD SVG 1.1//EN"
 "http://www.w3.org/Graphics/SVG/1.1/DTD/svg11.dtd">
<!-- Generated by graphviz version 2.40.1 (20161225.0304)
 -->
<!-- Title: dsvers Pages: 1 -->
<svg width="596pt" height="116pt"
 viewBox="0.00 0.00 596.25 116.00" xmlns="http://www.w3.org/2000/svg" xmlns:xlink="http://www.w3.org/1999/xlink">
<g id="graph0" class="graph" transform="scale(1 1) rotate(0) translate(4 112)">
<title>dsvers</title>
<polygon fill="#ffffff" stroke="transparent" points="-4,4 -4,-112 592.2474,-112 592.2474,4 -4,4"/>
<!-- init -->
<g id="node1" class="node">
<title>init</title>
<g id="a_node1"><a xlink:href="/datasets/select/init" xlink:title="init">
<ellipse fill="none" stroke="#000000" stroke-width="2" cx="27" cy="-90" rx="27" ry="18"/>
<text text-anchor="middle" x="27" y="-86.3" font-family="Times,serif" font-size="14.00" fill="#000000">init</text>
</a>
</g>
</g>
<!-- adas -->
<g id="node2" class="node">
<title>adas</title>
<g id="a_node2"><a xlink:href="/datasets/select/adas" xlink:title="adas">
<ellipse fill="none" stroke="#000000" cx="27" cy="-18" rx="27" ry="18"/>
<text text-anchor="middle" x="27" y="-14.3" font-family="Times,serif" font-size="14.00" fill="#000000">adas</text>
</a>
</g>
</g>
<!-- init&#45;&gt;adas -->
<g id="edge1" class="edge">
<title>init&#45;&gt;adas</title>
<path fill="none" stroke="#000000" d="M27,-71.8314C27,-64.131 27,-54.9743 27,-46.4166"/>
<polygon fill="#000000" stroke="#000000" points="30.5001,-46.4132 27,-36.4133 23.5001,-46.4133 30.5001,-46.4132"/>
</g>
<!-- ds2 -->
<g id="node3" class="node">
<title>ds2</title>
<g id="a_node3"><a xlink:href="/datasets/select/ds2" xlink:title="ds2">
<ellipse fill="none" stroke="#000000" stroke-width="2" cx="99" cy="-90" rx="27" ry="18"/>
<text text-anchor="middle" x="99" y="-86.3" font-family="Times,serif" font-size="14.00" fill="#000000">ds2</text>
</a>
</g>
</g>
<!-- ds21 -->
<g id="node4" class="node">
<title>ds21</title>
<g id="a_node4"><a xlink:href="/datasets/select/ds21" xlink:title="ds21">
<ellipse fill="none" stroke="#000000" cx="99" cy="-18" rx="27.0966" ry="18"/>
<text text-anchor="middle" x="99" y="-14.3" font-family="Times,serif" font-size="14.00" fill="#000000">ds21</text>
</a>
</g>
</g>
<!-- ds2&#45;&gt;ds21 -->
<g id="edge2" class="edge">
<title>ds2&#45;&gt;ds21</title>
<path fill="none" stroke="#000000" d="M99,-71.8314C99,-64.131 99,-54.9743 99,-46.4166"/>
<polygon fill="#000000" stroke="#000000" points="102.5001,-46.4132 99,-36.4133 95.5001,-46.4133 102.5001,-46.4132"/>
</g>
<!-- ds3 -->
<g id="node5" class="node">
<title>ds3</title>
<g id="a_node5"><a xlink:href="/datasets/select/ds3" xlink:title="ds3">
<ellipse fill="none" stroke="#000000" stroke-width="2" cx="172" cy="-90" rx="27" ry="18"/>
<text text-anchor="middle" x="172" y="-86.3" font-family="Times,serif" font-size="14.00" fill="#000000">ds3</text>
</a>
</g>
</g>
<!-- ds31 -->
<g id="node6" class="node">
<title>ds31</title>
<g id="a_node6"><a xlink:href="/datasets/select/ds31" xlink:title="ds31">
<ellipse fill="none" stroke="#000000" cx="172" cy="-18" rx="27.0966" ry="18"/>
<text text-anchor="middle" x="172" y="-14.3" font-family="Times,serif" font-size="14.00" fill="#000000">ds31</text>
</a>
</g>
</g>
<!-- ds3&#45;&gt;ds31 -->
<g id="edge3" class="edge">
<title>ds3&#45;&gt;ds31</title>
<path fill="none" stroke="#000000" d="M172,-71.8314C172,-64.131 172,-54.9743 172,-46.4166"/>
<polygon fill="#000000" stroke="#000000" points="175.5001,-46.4132 172,-36.4133 168.5001,-46.4133 175.5001,-46.4132"/>
</g>
<!-- abcd -->
<g id="node7" class="node">
<title>abcd</title>
<g id="a_node7"><a xlink:href="/datasets/select/abcd" xlink:title="abcd">
<ellipse fill="none" stroke="#000000" cx="244" cy="-90" rx="27.0966" ry="18"/>
<text text-anchor="middle" x="244" y="-86.3" font-family="Times,serif" font-size="14.00" fill="#000000">abcd</text>
</a>
</g>
</g>
<!-- fhtagn -->
<g id="node8" class="node">
<title>fhtagn</title>
<g id="a_node8"><a xlink:href="/datasets/select/fhtagn" xlink:title="fhtagn">
<ellipse fill="none" stroke="#000000" stroke-width="2" cx="322" cy="-90" rx="33.2948" ry="18"/>
<text text-anchor="middle" x="322" y="-86.3" font-family="Times,serif" font-size="14.00" fill="#000000">fhtagn</text>
</a>
</g>
</g>
<!-- ctulhu -->
<g id="node9" class="node">
<title>ctulhu</title>
<g id="a_node9"><a xlink:href="/datasets/select/ctulhu" xlink:title="ctulhu">
<ellipse fill="none" stroke="#000000" cx="322" cy="-18" rx="32.4942" ry="18"/>
<text text-anchor="middle" x="322" y="-14.3" font-family="Times,serif" font-size="14.00" fill="#000000">ctulhu</text>
</a>
</g>
</g>
<!-- fhtagn&#45;&gt;ctulhu -->
<g id="edge4" class="edge">
<title>fhtagn&#45;&gt;ctulhu</title>
<path fill="none" stroke="#000000" d="M322,-71.8314C322,-64.131 322,-54.9743 322,-46.4166"/>
<polygon fill="#000000" stroke="#000000" points="325.5001,-46.4132 322,-36.4133 318.5001,-46.4133 325.5001,-46.4132"/>
</g>
<!-- rleh -->
<g id="node10" class="node">
<title>rleh</title>
<g id="a_node10"><a xlink:href="/datasets/select/rleh" xlink:title="rleh">
<ellipse fill="none" stroke="#000000" cx="400" cy="-90" rx="27" ry="18"/>
<text text-anchor="middle" x="400" y="-86.3" font-family="Times,serif" font-size="14.00" fill="#000000">rleh</text>
</a>
</g>
</g>
<!-- lgknrs -->
<g id="node11" class="node">
<title>lgknrs</title>
<g id="a_node11"><a xlink:href="/datasets/select/lgknrs" xlink:title="lgknrs">
<ellipse fill="none" stroke="#000000" stroke-width="2" cx="477" cy="-90" rx="32.4942" ry="18"/>
<text text-anchor="middle" x="477" y="-86.3" font-family="Times,serif" font-size="14.00" fill="#000000">lgknrs</text>
</a>
</g>
</g>
<!-- lgjelnd -->
<g id="node12" class="node">
<title>lgjelnd</title>
<g id="a_node12"><a xlink:href="/datasets/select/lgjelnd" xlink:title="lgjelnd">
<ellipse fill="none" stroke="#000000" cx="477" cy="-18" rx="35.194" ry="18"/>
<text text-anchor="middle" x="477" y="-14.3" font-family="Times,serif" font-size="14.00" fill="#000000">lgjelnd</text>
</a>
</g>
</g>
<!-- lgknrs&#45;&gt;lgjelnd -->
<g id="edge5" class="edge">
<title>lgknrs&#45;&gt;lgjelnd</title>
<path fill="none" stroke="#000000" d="M477,-71.8314C477,-64.131 477,-54.9743 477,-46.4166"/>
<polygon fill="#000000" stroke="#000000" points="480.5001,-46.4132 477,-36.4133 473.5001,-46.4133 480.5001,-46.4132"/>
</g>
<!-- _123 -->
<g id="node13" class="node">
<title>_123</title>
<g id="a_node13"><a xlink:href="/datasets/select/_123" xlink:title="_123">
<ellipse fill="none" stroke="#000000" stroke-width="2" cx="559" cy="-90" rx="28.6953" ry="18"/>
<text text-anchor="middle" x="559" y="-86.3" font-family="Times,serif" font-size="14.00" fill="#000000">_123</text>
</a>
</g>
</g>
<!-- pfefg -->
<g id="node14" class="node">
<title>pfefg</title>
<g id="a_node14"><a xlink:href="/datasets/select/pfefg" xlink:title="pfefg">
<ellipse fill="#d3d3d3" stroke="#000000" cx="559" cy="-18" rx="29.4969" ry="18"/>
<text text-anchor="middle" x="559" y="-14.3" font-family="Times,serif" font-size="14.00" fill="#000000">pfefg</text>
</a>
</g>
</g>
<!-- _123&#45;&gt;pfefg -->
<g id="edge6" class="edge">
<title>_123&#45;&gt;pfefg</title>
<path fill="none" stroke="#000000" d="M559,-71.8314C559,-64.131 559,-54.9743 559,-46.4166"/>
<polygon fill="#000000" stroke="#000000" points="562.5001,-46.4132 559,-36.4133 555.5001,-46.4133 562.5001,-46.4132"/>
</g>
</g>
</svg>
