<?xml version="1.0" encoding="UTF-8" standalone="no"?>
<!DOCTYPE svg PUBLIC "-//W3C//DTD SVG 1.1//EN"
 "http://www.w3.org/Graphics/SVG/1.1/DTD/svg11.dtd">
<!-- Generated by graphviz version 2.43.0 (0)
 -->
<!-- Title: dsvers Pages: 1 -->
<svg width="315pt" height="260pt"
 viewBox="0.00 0.00 315.45 260.00" xmlns="http://www.w3.org/2000/svg" xmlns:xlink="http://www.w3.org/1999/xlink">
<g id="graph0" class="graph" transform="scale(1 1) rotate(0) translate(4 256)">
<title>dsvers</title>
<polygon fill="white" stroke="transparent" points="-4,4 -4,-256 311.45,-256 311.45,4 -4,4"/>
<!-- init -->
<g id="node1" class="node">
<title>init</title>
<g id="a_node1"><a xlink:href="/datasets/select/init" xlink:title="init">
<ellipse fill="none" stroke="black" stroke-width="2" cx="66" cy="-234" rx="27" ry="18"/>
<text text-anchor="middle" x="66" y="-230.3" font-family="Times,serif" font-size="14.00">init</text>
</a>
</g>
</g>
<!-- new -->
<g id="node2" class="node">
<title>new</title>
<g id="a_node2"><a xlink:href="/datasets/select/new" xlink:title="new">
<ellipse fill="none" stroke="black" cx="27" cy="-162" rx="27" ry="18"/>
<text text-anchor="middle" x="27" y="-158.3" font-family="Times,serif" font-size="14.00">new</text>
</a>
</g>
</g>
<!-- init&#45;&gt;new -->
<g id="edge2" class="edge">
<title>init&#45;&gt;new</title>
<path fill="none" stroke="black" d="M56.95,-216.76C52.18,-208.19 46.22,-197.49 40.87,-187.9"/>
<polygon fill="black" stroke="black" points="43.92,-186.18 36,-179.15 37.81,-189.59 43.92,-186.18"/>
</g>
<!-- testset -->
<g id="node3" class="node">
<title>testset</title>
<g id="a_node3"><a xlink:href="/datasets/select/testset" xlink:title="testset">
<ellipse fill="none" stroke="black" stroke-width="2" cx="104" cy="-162" rx="32.49" ry="18"/>
<text text-anchor="middle" x="104" y="-158.3" font-family="Times,serif" font-size="14.00">testset</text>
</a>
</g>
</g>
<!-- init&#45;&gt;testset -->
<g id="edge1" class="edge">
<title>init&#45;&gt;testset</title>
<path fill="none" stroke="black" d="M74.81,-216.76C79.35,-208.4 84.99,-198.02 90.1,-188.61"/>
<polygon fill="black" stroke="black" points="93.28,-190.09 94.97,-179.63 87.12,-186.75 93.28,-190.09"/>
</g>
<!-- third -->
<g id="node4" class="node">
<title>third</title>
<g id="a_node4"><a xlink:href="/datasets/select/third" xlink:title="third">
<ellipse fill="none" stroke="black" cx="104" cy="-90" rx="27.1" ry="18"/>
<text text-anchor="middle" x="104" y="-86.3" font-family="Times,serif" font-size="14.00">third</text>
</a>
</g>
</g>
<!-- testset&#45;&gt;third -->
<g id="edge3" class="edge">
<title>testset&#45;&gt;third</title>
<path fill="none" stroke="black" d="M104,-143.7C104,-135.98 104,-126.71 104,-118.11"/>
<polygon fill="black" stroke="black" points="107.5,-118.1 104,-108.1 100.5,-118.1 107.5,-118.1"/>
</g>
<!-- today1 -->
<g id="node5" class="node">
<title>today1</title>
<g id="a_node5"><a xlink:href="/datasets/select/today1" xlink:title="today1">
<ellipse fill="lightgrey" stroke="black" stroke-width="2" cx="231" cy="-234" rx="34.39" ry="18"/>
<text text-anchor="middle" x="231" y="-230.3" font-family="Times,serif" font-size="14.00">today1</text>
</a>
</g>
</g>
<!-- today2 -->
<g id="node6" class="node">
<title>today2</title>
<g id="a_node6"><a xlink:href="/datasets/select/today2" xlink:title="today2">
<ellipse fill="none" stroke="black" stroke-width="2" cx="231" cy="-162" rx="34.39" ry="18"/>
<text text-anchor="middle" x="231" y="-158.3" font-family="Times,serif" font-size="14.00">today2</text>
</a>
</g>
</g>
<!-- today1&#45;&gt;today2 -->
<g id="edge4" class="edge">
<title>today1&#45;&gt;today2</title>
<path fill="none" stroke="black" d="M231,-215.7C231,-207.98 231,-198.71 231,-190.11"/>
<polygon fill="black" stroke="black" points="234.5,-190.1 231,-180.1 227.5,-190.1 234.5,-190.1"/>
</g>
<!-- today4 -->
<g id="node7" class="node">
<title>today4</title>
<g id="a_node7"><a xlink:href="/datasets/select/today4" xlink:title="today4">
<ellipse fill="none" stroke="black" cx="186" cy="-90" rx="34.39" ry="18"/>
<text text-anchor="middle" x="186" y="-86.3" font-family="Times,serif" font-size="14.00">today4</text>
</a>
</g>
</g>
<!-- today2&#45;&gt;today4 -->
<g id="edge6" class="edge">
<title>today2&#45;&gt;today4</title>
<path fill="none" stroke="black" d="M220.56,-144.76C215.13,-136.32 208.37,-125.8 202.27,-116.31"/>
<polygon fill="black" stroke="black" points="205.04,-114.15 196.69,-107.63 199.16,-117.94 205.04,-114.15"/>
</g>
<!-- today3 -->
<g id="node8" class="node">
<title>today3</title>
<g id="a_node8"><a xlink:href="/datasets/select/today3" xlink:title="today3">
<ellipse fill="none" stroke="black" stroke-width="2" cx="273" cy="-90" rx="34.39" ry="18"/>
<text text-anchor="middle" x="273" y="-86.3" font-family="Times,serif" font-size="14.00">today3</text>
</a>
</g>
</g>
<!-- today2&#45;&gt;today3 -->
<g id="edge5" class="edge">
<title>today2&#45;&gt;today3</title>
<path fill="none" stroke="black" d="M240.95,-144.41C246.03,-135.95 252.3,-125.49 257.95,-116.08"/>
<polygon fill="black" stroke="black" points="260.97,-117.85 263.12,-107.47 254.97,-114.24 260.97,-117.85"/>
</g>
<!-- today5 -->
<g id="node9" class="node">
<title>today5</title>
<g id="a_node9"><a xlink:href="/datasets/select/today5" xlink:title="today5">
<ellipse fill="none" stroke="black" cx="273" cy="-18" rx="34.39" ry="18"/>
<text text-anchor="middle" x="273" y="-14.3" font-family="Times,serif" font-size="14.00">today5</text>
</a>
</g>
</g>
<!-- today3&#45;&gt;today5 -->
<g id="edge7" class="edge">
<title>today3&#45;&gt;today5</title>
<path fill="none" stroke="black" d="M273,-71.7C273,-63.98 273,-54.71 273,-46.11"/>
<polygon fill="black" stroke="black" points="276.5,-46.1 273,-36.1 269.5,-46.1 276.5,-46.1"/>
</g>
</g>
</svg>
